<svg width="770" height="188" viewBox="0 0 770 188" fill="none" xmlns="http://www.w3.org/2000/svg">
<path d="M59.8523 124L75.3068 30.9091H114.125C121.095 30.9091 126.777 31.8939 131.17 33.8636C135.564 35.8333 138.655 38.5909 140.443 42.1364C142.261 45.6818 142.777 49.7879 141.989 54.4545C141.352 57.9697 140.049 61.1212 138.08 63.9091C136.14 66.6667 133.716 68.9697 130.807 70.8182C127.898 72.6364 124.686 73.9091 121.17 74.6364L120.989 75.5455C124.746 75.697 128.064 76.697 130.943 78.5455C133.852 80.3939 136.004 82.9848 137.398 86.3182C138.792 89.6212 139.11 93.5 138.352 97.9545C137.534 102.955 135.519 107.424 132.307 111.364C129.125 115.273 124.928 118.364 119.716 120.636C114.504 122.879 108.473 124 101.625 124H59.8523ZM85.4432 105.864H99.3523C104.17 105.864 107.898 104.939 110.534 103.091C113.201 101.212 114.777 98.6364 115.261 95.3636C115.655 92.9697 115.443 90.9091 114.625 89.1818C113.807 87.4242 112.443 86.0758 110.534 85.1364C108.625 84.1667 106.216 83.6818 103.307 83.6818H88.9886L85.4432 105.864ZM91.4886 69.1818H103.989C106.413 69.1818 108.64 68.7727 110.67 67.9545C112.731 67.1364 114.428 65.9545 115.761 64.4091C117.125 62.8636 117.973 61 118.307 58.8182C118.822 55.697 118.11 53.2424 116.17 51.4545C114.231 49.6667 111.398 48.7727 107.67 48.7727H94.8523L91.4886 69.1818ZM240.216 78.9091C238.519 88.9394 235.186 97.4091 230.216 104.318C225.277 111.197 219.261 116.409 212.17 119.955C205.11 123.5 197.519 125.273 189.398 125.273C180.822 125.273 173.398 123.364 167.125 119.545C160.852 115.727 156.292 110.167 153.443 102.864C150.625 95.5606 150.08 86.697 151.807 76.2727C153.443 66.2424 156.731 57.7576 161.67 50.8182C166.64 43.8788 172.686 38.6212 179.807 35.0454C186.958 31.4394 194.625 29.6364 202.807 29.6364C211.322 29.6364 218.701 31.5606 224.943 35.4091C231.216 39.2576 235.761 44.8485 238.58 52.1818C241.398 59.5151 241.943 68.4242 240.216 78.9091ZM217.716 76.2727C218.655 70.4242 218.655 65.5 217.716 61.5C216.807 57.5 215.019 54.4848 212.352 52.4545C209.686 50.3939 206.216 49.3636 201.943 49.3636C197.216 49.3636 192.943 50.5303 189.125 52.8636C185.337 55.1667 182.17 58.5303 179.625 62.9545C177.08 67.3485 175.307 72.6667 174.307 78.9091C173.277 84.8182 173.246 89.7424 174.216 93.6818C175.216 97.6212 177.08 100.591 179.807 102.591C182.534 104.561 186.004 105.545 190.216 105.545C194.913 105.545 199.14 104.409 202.898 102.136C206.655 99.8636 209.792 96.5455 212.307 92.1818C214.852 87.8182 216.655 82.5152 217.716 76.2727ZM277.966 30.9091L290.057 60.3182H290.784L312.875 30.9091H338.92L303.193 77.4545L324.375 124H299.148L286.602 94.2727H285.875L263.511 124H237.284L273.966 77.4545L253.466 30.9091H277.966ZM362.602 124L378.057 30.9091H400.557L388.193 105.727H426.92L423.83 124H362.602ZM527.216 78.9091C525.519 88.9394 522.186 97.4091 517.216 104.318C512.277 111.197 506.261 116.409 499.17 119.955C492.11 123.5 484.519 125.273 476.398 125.273C467.822 125.273 460.398 123.364 454.125 119.545C447.852 115.727 443.292 110.167 440.443 102.864C437.625 95.5606 437.08 86.697 438.807 76.2727C440.443 66.2424 443.731 57.7576 448.67 50.8182C453.64 43.8788 459.686 38.6212 466.807 35.0454C473.958 31.4394 481.625 29.6364 489.807 29.6364C498.322 29.6364 505.701 31.5606 511.943 35.4091C518.216 39.2576 522.761 44.8485 525.58 52.1818C528.398 59.5151 528.943 68.4242 527.216 78.9091ZM504.716 76.2727C505.655 70.4242 505.655 65.5 504.716 61.5C503.807 57.5 502.019 54.4848 499.352 52.4545C496.686 50.3939 493.216 49.3636 488.943 49.3636C484.216 49.3636 479.943 50.5303 476.125 52.8636C472.337 55.1667 469.17 58.5303 466.625 62.9545C464.08 67.3485 462.307 72.6667 461.307 78.9091C460.277 84.8182 460.246 89.7424 461.216 93.6818C462.216 97.6212 464.08 100.591 466.807 102.591C469.534 104.561 473.004 105.545 477.216 105.545C481.913 105.545 486.14 104.409 489.898 102.136C493.655 99.8636 496.792 96.5455 499.307 92.1818C501.852 87.8182 503.655 82.5152 504.716 76.2727ZM628.216 78.9091C626.519 88.9394 623.186 97.4091 618.216 104.318C613.277 111.197 607.261 116.409 600.17 119.955C593.11 123.5 585.519 125.273 577.398 125.273C568.822 125.273 561.398 123.364 555.125 119.545C548.852 115.727 544.292 110.167 541.443 102.864C538.625 95.5606 538.08 86.697 539.807 76.2727C541.443 66.2424 544.731 57.7576 549.67 50.8182C554.64 43.8788 560.686 38.6212 567.807 35.0454C574.958 31.4394 582.625 29.6364 590.807 29.6364C599.322 29.6364 606.701 31.5606 612.943 35.4091C619.216 39.2576 623.761 44.8485 626.58 52.1818C629.398 59.5151 629.943 68.4242 628.216 78.9091ZM605.716 76.2727C606.655 70.4242 606.655 65.5 605.716 61.5C604.807 57.5 603.019 54.4848 600.352 52.4545C597.686 50.3939 594.216 49.3636 589.943 49.3636C585.216 49.3636 580.943 50.5303 577.125 52.8636C573.337 55.1667 570.17 58.5303 567.625 62.9545C565.08 67.3485 563.307 72.6667 562.307 78.9091C561.277 84.8182 561.246 89.7424 562.216 93.6818C563.216 97.6212 565.08 100.591 567.807 102.591C570.534 104.561 574.004 105.545 578.216 105.545C582.913 105.545 587.14 104.409 590.898 102.136C594.655 99.8636 597.792 96.5455 600.307 92.1818C602.852 87.8182 604.655 82.5152 605.716 76.2727ZM638.92 49.1818L642.011 30.9091H720.693L717.602 49.1818H689.375L677.011 124H654.83L667.193 49.1818H638.92Z" fill="#DEDEDE"/>
<rect width="770" height="18" transform="translate(0 69)" fill="#DEDEDE"/>
</svg>
