<svg width="25" height="25" viewBox="0 0 25 25" fill="none" xmlns="http://www.w3.org/2000/svg">
<path d="M9.54285 0.0738588C11.3464 -0.140545 13.2027 0.11376 14.8821 0.811769C16.9411 1.68109 18.7119 3.21916 19.8761 5.13815C20.979 6.9417 21.5391 9.07563 21.4647 11.1931C21.3976 13.3515 20.6691 15.4806 19.4083 17.2262C21.1221 18.9504 22.8332 20.6774 24.5464 22.4027C24.8447 22.6959 25.0158 23.1162 24.9989 23.537C24.9883 24.0227 24.7222 24.4861 24.3252 24.7574C23.8553 25.066 23.2254 25.0692 22.7265 24.8293C22.4826 24.7165 22.31 24.5047 22.122 24.3201C20.5075 22.6921 18.8909 21.0663 17.278 19.4362C15.8736 20.53 14.1994 21.2684 12.4477 21.5589C10.4504 21.8968 8.35917 21.652 6.49441 20.8561C4.78541 20.1102 3.27545 18.9089 2.1604 17.4065C1.06541 15.9387 0.348441 14.1867 0.101884 12.3667C-0.173711 10.3817 0.113498 8.32176 0.918636 6.48895C1.6525 4.8067 2.81876 3.31918 4.27329 2.21045C5.79856 1.0416 7.63903 0.295711 9.54285 0.0738588ZM9.83164 3.14467C8.40563 3.32184 7.03346 3.91025 5.91894 4.82426C4.75004 5.77604 3.86782 7.07949 3.41747 8.52499C2.93914 10.0354 2.93702 11.6937 3.40955 13.2062C3.83244 14.5735 4.63969 15.8174 5.71356 16.7559C6.50761 17.4528 7.44474 17.9827 8.44839 18.3035C10.2408 18.8845 12.2423 18.768 13.9576 17.9854C15.5832 17.2549 16.939 15.9376 17.7225 14.3272C18.6111 12.5316 18.7668 10.386 18.147 8.47923C17.5425 6.57088 16.1735 4.92641 14.4143 3.99378C13.0216 3.24523 11.3976 2.94464 9.83164 3.14467Z" fill="white"/>
</svg>
