<svg width="25" height="25" viewBox="0 0 25 25" fill="none" xmlns="http://www.w3.org/2000/svg">
<path d="M20.7749 12.7822C20.2744 10.4043 18.585 9.00293 17.7964 8.22412C16.4414 6.77393 14.9546 4.98682 14.1782 1C13.2969 1.56152 11.9272 2.46729 10.5991 4.70361C9.74463 6.13916 9.42969 7.521 9.27588 8.44385C9.0415 8.31689 8.39697 7.92627 7.98926 7.10352C7.56689 6.24658 7.66211 5.45313 7.70361 5.18945C6.68555 6.79102 5.92627 8.19727 5.38184 9.29346C4.68359 10.6948 4.31494 11.6177 4.12695 12.7847C4.12695 12.7847 4 13.5586 4 14.2861C4 19.0615 7.78662 22.9312 12.457 22.9312C17.1274 22.9312 20.9141 19.0615 20.9141 14.2861C20.9165 13.5171 20.7749 12.7822 20.7749 12.7822ZM12.479 20.6533C11.0068 20.6533 9.81055 19.4399 9.81055 17.9482C9.80811 16.4541 12.479 13.5488 12.479 13.5488C12.479 13.5488 15.1182 16.5933 15.1182 18.0898C15.1157 19.584 13.9512 20.6533 12.479 20.6533Z" fill="#A80A0A"/>
<path d="M17.9012 14.9841C17.5462 13.5745 16.3476 12.7438 15.7881 12.2822C14.8268 11.4226 13.7719 10.3632 13.2211 8C12.5958 8.33285 11.6241 8.86975 10.6819 10.1954C10.0756 11.0463 9.85219 11.8654 9.74306 12.4124C9.57678 12.3372 9.11951 12.1056 8.83025 11.6179C8.5306 11.11 8.59815 10.6397 8.62759 10.4834C7.90531 11.4327 7.36663 12.2663 6.98037 12.9161C6.48499 13.7467 6.22344 14.2938 6.09007 14.9855C6.09007 14.9855 6 15.4443 6 15.8755C6 18.7062 8.68648 21 12 21C15.3135 21 18 18.7062 18 15.8755C18.0017 15.4197 17.9012 14.9841 17.9012 14.9841ZM12.0156 19.6498C10.9711 19.6498 10.1224 18.9305 10.1224 18.0463C10.1207 17.1606 12.0156 15.4385 12.0156 15.4385C12.0156 15.4385 13.888 17.2431 13.888 18.1302C13.8862 19.0159 13.06 19.6498 12.0156 19.6498Z" fill="#D86B2E"/>
</svg>
