<svg width="25" height="25" viewBox="0 0 25 25" fill="none" xmlns="http://www.w3.org/2000/svg">
<path d="M25 12.4993L21.6159 14.9434L23.3255 18.7516L19.1719 19.1712L18.7523 23.3257L14.9441 21.6153L12.5 24.9993L10.0559 21.6153L6.24769 23.3257L5.82812 19.1712L1.67451 18.7516L3.38406 14.9434L0 12.4993L3.38406 10.056L1.67365 6.24769L5.82812 5.82812L6.24846 1.67365L10.0559 3.38406L12.5 0L14.9441 3.38406L18.7523 1.67365L19.1711 5.82812L23.3256 6.24769L21.616 10.0552L25 12.4993Z" fill="#5865F2"/>
<path d="M9.2582 10.9358C9.01516 10.9358 8.83468 11.0866 8.83468 11.3569V13.3994H8.82294L7.03138 11.114C6.95794 11.0163 6.78294 10.935 6.67505 10.935C6.43202 10.935 6.25154 11.0859 6.25154 11.3561V14.426C6.25154 14.6964 6.43202 14.8471 6.67505 14.8471C6.91886 14.8471 7.09933 14.6963 7.09933 14.426V12.411H7.11108L8.90273 14.6691C8.98165 14.7668 9.15039 14.848 9.25828 14.848C9.50209 14.848 9.68256 14.6972 9.68256 14.4269V11.357C9.68248 11.0874 9.502 10.9358 9.2582 10.9358ZM12.618 14.0698H11.5717V13.2486H12.4992C12.7711 13.2486 12.9118 13.0595 12.9118 12.8759C12.9118 12.686 12.7759 12.5024 12.4992 12.5024H11.5717V11.7132H12.5664C12.8321 11.7132 12.968 11.5242 12.968 11.3405C12.968 11.1515 12.8382 10.9663 12.5664 10.9663H11.1647C10.8654 10.9663 10.7248 11.1663 10.7248 11.4375V14.4098C10.7248 14.6528 10.9108 14.8145 11.1601 14.8145H12.6181C12.8837 14.8145 13.0189 14.6262 13.0189 14.4418C13.0188 14.2534 12.8891 14.0698 12.618 14.0698ZM18.339 10.9358C18.0679 10.9358 17.9374 11.0866 17.8874 11.3249L17.4069 13.6213H17.3951L16.6606 11.2547C16.5989 11.0601 16.4293 10.9359 16.2208 10.9359C16.0122 10.9359 15.8418 11.0601 15.7801 11.2547L15.0456 13.6213H15.0346L14.5541 11.3249C14.5033 11.0866 14.3737 10.9358 14.1017 10.9358C13.8541 10.9358 13.7009 11.1194 13.7009 11.2929L13.7228 11.4758L14.4408 14.4261C14.4971 14.6527 14.6839 14.8472 15.0003 14.8472C15.2769 14.8472 15.4917 14.6738 15.5597 14.4527L16.2153 12.3673H16.227L16.8826 14.4527C16.9505 14.6738 17.1655 14.8472 17.442 14.8472C17.7585 14.8472 17.946 14.6527 18.0022 14.4261L18.7195 11.4758L18.7421 11.2929C18.7399 11.1194 18.5875 10.9358 18.339 10.9358Z" fill="white"/>
</svg>
