<svg width="25" height="25" viewBox="0 0 25 25" fill="none" xmlns="http://www.w3.org/2000/svg">
<path d="M12.1809 0.0509185C12.7232 -0.137839 13.3914 0.223804 13.4002 0.71412C13.4111 1.67548 13.4063 2.63797 13.4029 3.59933C13.4084 3.99895 12.979 4.35436 12.4993 4.34416C12.0217 4.35323 11.589 4.00009 11.5965 3.60046C11.5903 2.65668 11.593 1.71232 11.5951 0.768537C11.5849 0.457342 11.8312 0.158618 12.1809 0.0509185Z" fill="#5865F2"/>
<path d="M5.1095 2.09725C5.45242 1.97027 5.87359 2.0519 6.12806 2.27863C6.92209 2.939 7.71748 3.5988 8.50811 4.26257C8.85579 4.53976 8.85852 5.04481 8.51355 5.32483C8.17947 5.62242 7.55963 5.62128 7.22487 5.32426C6.44037 4.6758 5.66199 4.02223 4.87952 3.37207C4.69445 3.22582 4.55905 3.02629 4.55973 2.80976C4.54408 2.50707 4.77746 2.21458 5.1095 2.09725Z" fill="#5865F2"/>
<path d="M19.1911 2.09437C19.5946 1.94756 20.1042 2.0938 20.3185 2.4135C20.5213 2.69579 20.4628 3.08351 20.1838 3.31704C19.4639 3.92526 18.7339 4.52498 18.0106 5.13093C17.8146 5.29531 17.6153 5.4852 17.3282 5.53112C16.8975 5.62124 16.4232 5.39904 16.279 5.05214C16.1579 4.78289 16.2463 4.46376 16.4919 4.2631C17.2485 3.62767 18.0113 2.99791 18.7686 2.36305C18.8944 2.25932 19.023 2.15049 19.1911 2.09437Z" fill="#5865F2"/>
<path d="M4.77678 7.15286C5.002 7.07067 5.25238 7.09618 5.4912 7.09335C10.2765 7.09335 15.0617 7.09335 19.847 7.09335C20.1722 7.08371 20.4846 7.23392 20.6506 7.46576C22.0406 9.21899 23.43 10.9722 24.8201 12.7255C24.9868 12.9216 25.0501 13.1806 24.9568 13.4119C24.8881 13.6018 24.7092 13.7412 24.5588 13.888C20.8499 17.4263 17.1417 20.9645 13.4329 24.5027C13.2526 24.6705 13.0879 24.8711 12.8219 24.9505C12.4776 25.065 12.0625 24.9749 11.8203 24.7436C7.9597 21.0614 4.10046 17.3786 0.24054 13.6959C-0.041147 13.4482 -0.0819718 13.0429 0.152767 12.7617C1.55031 10.9955 2.95126 9.23146 4.34949 7.46576C4.45223 7.33029 4.59784 7.21522 4.77678 7.15286ZM5.63137 8.59774C4.60736 9.86973 3.60581 11.1542 2.58521 12.4284C4.16238 12.4301 5.73955 12.4284 7.31672 12.4296C7.7236 11.1542 8.12572 9.87823 8.53465 8.60341C7.56643 8.59547 6.5989 8.60738 5.63137 8.59774ZM10.4071 8.60114C10.0016 9.87709 9.59675 11.153 9.19123 12.429C11.3964 12.4296 13.6016 12.4296 15.8068 12.4284C15.4013 11.153 14.9951 9.87709 14.5909 8.60171C13.1961 8.60057 11.8019 8.60114 10.4071 8.60114ZM16.4661 8.60284C16.8737 9.87653 17.2758 11.1513 17.682 12.4256C19.2544 12.4262 20.8268 12.4239 22.3985 12.4267C21.4038 11.1423 20.3859 9.86916 19.368 8.59717C18.4005 8.60737 17.4329 8.5966 16.4661 8.60284ZM2.89751 13.9368C5.32655 16.2552 7.7583 18.5718 10.186 20.8913C9.25383 18.5724 8.31283 16.2557 7.37796 13.9374C5.88448 13.9362 4.39099 13.9374 2.89751 13.9368ZM9.29193 13.9374C10.3554 16.5794 11.4291 19.2186 12.4898 21.8618C12.6599 21.5324 12.7695 21.1838 12.9164 20.8471C13.8459 18.5435 14.7787 16.241 15.7061 13.9374C13.5683 13.9368 11.4298 13.9368 9.29193 13.9374ZM17.6214 13.9368C16.6852 16.2546 15.7455 18.5713 14.8141 20.8902C17.2431 18.573 19.6735 16.2557 22.1012 13.9374C20.6077 13.9368 19.1142 13.9368 17.6214 13.9368Z" fill="#5865F2"/>
</svg>
